<svg width="36" height="36" viewBox="0 0 36 36" fill="none" xmlns="http://www.w3.org/2000/svg">
<g clip-path="url(#clip0_193_8258)">
<path d="M10.5224 11.7985C7.79151 15.3085 7.83932 21.5439 11.3296 24.6348C15.2924 28.142 20.8696 28.1054 24.3768 24.8795C28.5815 21.0095 28.3396 14.5689 24.6215 10.921C20.8837 7.25355 14.204 7.0623 10.5224 11.7985Z" fill="#EA852B"/>
<path d="M14.9064 10.5946C13.8264 10.1165 12.6452 11.4187 12.1305 12.3074C11.6158 13.199 11.1377 14.9455 12.2345 15.3927C13.3314 15.8371 14.1189 15.0833 14.9092 13.7812C15.6939 12.479 16.1411 11.143 14.9064 10.5946Z" fill="#EA852B"/>
<path d="M17.7181 5.70344C17.4566 6.19281 17.5438 6.56969 18.0641 6.69344C18.5844 6.81719 21.8216 7.34312 22.0944 7.36C22.4909 7.38531 22.6372 7.08719 22.5894 6.74125C22.5388 6.39531 21.7484 1.54937 21.6753 1.105C21.6022 0.660623 21.1325 0.216248 20.6853 0.809686C20.2381 1.40312 17.915 5.335 17.7181 5.70344ZM26.0994 9.06719C25.5903 9.22469 25.6044 9.53687 25.8772 9.93344C26.15 10.33 28.0288 13.1959 28.2003 13.3956C28.3747 13.5925 28.67 13.6431 28.9175 13.345C29.165 13.0497 32.2531 8.71844 32.4781 8.44844C32.8494 8.00406 32.6272 7.53437 32.0591 7.68062C31.6259 7.79594 26.42 8.96875 26.0994 9.06719ZM29.9806 17.4006C29.615 17.1925 29.1397 17.2516 29.0159 17.7212C28.8922 18.1909 28.3494 21.6025 28.2988 21.9006C28.2481 22.1988 28.4731 22.4941 28.8416 22.4209C29.21 22.3478 34.3119 21.5913 34.6522 21.5069C35.2456 21.3578 35.4425 20.7644 34.8266 20.32C34.4272 20.0303 30.3266 17.5975 29.9806 17.4006ZM25.8997 25.4838C26.2934 25.2728 26.6422 25.4331 26.7406 25.8803C26.8391 26.3247 27.9275 30.8753 28.1019 31.7163C28.1891 32.1381 27.7053 32.4841 27.3116 32.2366C26.915 31.9891 22.6175 28.9938 22.3419 28.7491C21.9453 28.4031 22.2209 28.0431 22.415 27.8603C22.8088 27.4863 25.5284 25.6834 25.8997 25.4838ZM13.9325 27.9813C13.4347 27.9334 13.2884 28.3778 13.3644 28.7716C13.4375 29.1681 14.18 34.1828 14.2306 34.5569C14.3038 35.0997 14.8747 35.3247 15.2431 34.7791C15.6116 34.2334 18.1541 30.1666 18.3594 29.7841C18.7306 29.0922 18.4578 28.9431 18.0866 28.7716C17.7181 28.6 14.4528 28.0319 13.9325 27.9813ZM6.81407 22.2213C7.16001 21.6531 7.60438 21.8022 7.92782 22.345C8.14719 22.7163 10.0034 25.2138 10.1778 25.4838C10.3522 25.7566 10.4253 26.2741 9.88251 26.3978C9.33407 26.5244 4.91001 27.6859 4.21813 27.8097C3.52626 27.9334 3.12969 27.3906 3.57407 26.7972C3.83282 26.4484 6.61719 22.5447 6.81407 22.2213ZM5.87469 17.9181C6.50751 18.1994 6.80563 18.0981 6.93782 17.6453C7.11219 17.0519 7.62969 14.3322 7.65501 13.7134C7.67188 13.3112 7.50594 12.9231 6.88719 13.0216C6.26844 13.12 1.81907 13.7416 1.25094 13.9384C0.590006 14.1691 0.637819 14.8947 1.07657 15.1253C1.59688 15.3981 5.42751 17.7212 5.87469 17.9181ZM13.5641 7.53437C13.9213 7.25031 13.8116 6.8425 13.4909 6.62031C13.1703 6.39812 9.19907 3.52656 8.69563 3.13281C8.25126 2.78687 7.70563 2.91062 7.85469 3.70094C7.96157 4.26906 9.22719 9.24156 9.31438 9.58469C9.41282 9.98125 9.71094 10.1781 10.0569 9.93062C10.3972 9.68594 13.1928 7.8325 13.5641 7.53437Z" fill="#EA852B"/>
</g>
<defs>
<clipPath id="clip0_193_8258">
<rect width="36" height="36" fill="white"/>
</clipPath>
</defs>
</svg>
