<svg width="37" height="36" viewBox="0 0 37 36" fill="none" xmlns="http://www.w3.org/2000/svg">
<g clip-path="url(#clip0_193_8254)">
<path d="M15.233 3.357C14.0783 5.86359 13.7195 8.66387 14.2051 11.3806C14.6906 14.0973 15.9971 16.6 17.9486 18.5514C19.9 20.5029 22.4027 21.8094 25.1194 22.2949C27.8361 22.7805 30.6364 22.4217 33.143 21.267C31.652 27.981 25.6625 33 18.5 33C10.2155 33 3.5 26.2845 3.5 18C3.5 10.8375 8.519 4.848 15.233 3.357ZM27.746 3.4365L29 3.75V5.25L27.746 5.5635C27.2186 5.6954 26.737 5.96813 26.3525 6.35254C25.9681 6.73696 25.6954 7.2186 25.5635 7.746L25.25 9H23.75L23.4365 7.746C23.3046 7.2186 23.0319 6.73696 22.6475 6.35254C22.263 5.96813 21.7814 5.6954 21.254 5.5635L20 5.25V3.75L21.254 3.4365C21.7811 3.30436 22.2625 3.03153 22.6466 2.64713C23.0307 2.26273 23.3032 1.78121 23.435 1.254L23.75 0H25.25L25.5635 1.254C25.6954 1.7814 25.9681 2.26304 26.3525 2.64746C26.737 3.03187 27.2186 3.3046 27.746 3.4365ZM35.246 10.9365L36.5 11.25V12.75L35.246 13.0635C34.7186 13.1954 34.237 13.4681 33.8525 13.8525C33.4681 14.237 33.1954 14.7186 33.0635 15.246L32.75 16.5H31.25L30.9365 15.246C30.8046 14.7186 30.5319 14.237 30.1475 13.8525C29.763 13.4681 29.2814 13.1954 28.754 13.0635L27.5 12.75V11.25L28.754 10.9365C29.2814 10.8046 29.763 10.5319 30.1475 10.1475C30.5319 9.76304 30.8046 9.2814 30.9365 8.754L31.25 7.5H32.75L33.0635 8.754C33.1954 9.2814 33.4681 9.76304 33.8525 10.1475C34.237 10.5319 34.7186 10.8046 35.246 10.9365Z" fill="#171717"/>
</g>
<defs>
<clipPath id="clip0_193_8254">
<rect width="36" height="36" fill="white" transform="translate(0.5)"/>
</clipPath>
</defs>
</svg>
